<?xml version="1.0" standalone="no"?>
<!DOCTYPE svg PUBLIC "-//W3C//DTD SVG 20010904//EN"
 "http://www.w3.org/TR/2001/REC-SVG-20010904/DTD/svg10.dtd">
<svg version="1.0" xmlns="http://www.w3.org/2000/svg"
 width="400.000000pt" height="328.000000pt" viewBox="0 0 400.000000 328.000000"
 preserveAspectRatio="xMidYMid meet">
<metadata>
Created by potrace 1.15, written by Peter Selinger 2001-2017
</metadata>
<g transform="translate(0.000000,328.000000) scale(0.100000,-0.100000)"
fill="#ffffff" stroke="none">
<path d="M3089 3261 c-238 -64 -420 -234 -500 -465 l-28 -81 -733 -3 -732 -2
-23 -22 c-29 -27 -30 -77 -4 -109 l19 -24 731 -3 731 -2 0 -54 c0 -72 33 -195
76 -282 89 -181 273 -329 464 -375 30 -7 59 -16 63 -19 8 -7 -125 -310 -186
-423 -57 -107 43 -97 -936 -97 l-857 0 -18 68 c-23 89 -251 907 -332 1195 -35
126 -71 241 -79 257 -20 39 -69 77 -113 90 -21 5 -150 10 -299 10 -297 0 -293
1 -293 -75 0 -72 10 -75 242 -75 115 0 208 -4 225 -11 30 -11 79 -53 93 -80
12 -22 383 -1283 426 -1449 64 -242 146 -370 281 -436 l58 -29 758 -3 757 -3
25 25 c33 33 33 76 -1 110 l-27 26 -731 0 c-686 0 -733 2 -771 19 -60 27 -128
108 -149 178 l-7 23 858 2 858 3 43 23 c73 39 128 133 288 494 62 141 72 157
93 158 90 1 260 70 360 145 274 208 362 603 205 921 -91 185 -271 328 -475
378 -90 22 -273 21 -360 -3z m271 -491 l0 -150 145 0 145 0 0 -60 0 -60 -145
0 -145 0 0 -165 0 -165 -65 0 -65 0 0 165 0 165 -145 0 -145 0 0 60 0 60 145
0 145 0 0 150 0 150 65 0 65 0 0 -150z"/>
<path d="M1330 685 c-101 -28 -187 -103 -233 -203 -34 -72 -31 -207 5 -284 33
-71 103 -142 171 -174 44 -20 67 -24 148 -24 87 0 101 3 157 31 68 34 129 95
164 167 19 40 23 63 23 147 0 90 -3 105 -29 155 -77 149 -250 228 -406 185z
m178 -164 c130 -67 149 -231 39 -328 -64 -56 -179 -59 -245 -6 -57 46 -77 88
-77 160 0 52 5 68 30 105 56 81 170 112 253 69z"/>
<path d="M2749 687 c-104 -29 -190 -104 -238 -206 -21 -46 -26 -70 -26 -136 0
-100 33 -180 103 -248 75 -73 121 -91 234 -95 88 -4 103 -1 155 23 76 34 145
103 179 179 23 50 28 75 29 141 0 71 -4 88 -32 146 -76 154 -252 239 -404 196z
m200 -181 c111 -77 107 -254 -7 -327 -37 -23 -57 -29 -104 -29 -123 0 -198 75
-198 198 0 75 37 138 101 171 63 32 151 26 208 -13z"/>
</g>
</svg>
