<svg id="svg" version="1.1" width="400" height="400" xmlns="http://www.w3.org/2000/svg" xmlns:xlink="http://www.w3.org/1999/xlink" style="display: block;"><g id="svgg"><path id="path0" d="M8.600 39.755 C 4.154 41.696,2.446 48.555,5.476 52.304 C 8.101 55.553,6.716 55.375,31.200 55.603 L 53.000 55.806 55.400 56.766 C 62.470 59.592,66.212 63.804,68.403 71.400 C 69.101 73.820,75.402 95.240,82.405 119.000 C 104.436 193.746,111.431 217.914,114.647 230.400 C 121.257 256.065,131.746 269.543,149.414 275.077 L 153.000 276.200 234.225 276.307 L 315.449 276.413 317.225 275.476 C 322.572 272.652,322.849 264.334,317.704 261.135 L 316.200 260.200 236.400 259.996 C 161.549 259.804,156.453 259.748,154.233 259.083 C 145.412 256.444,137.154 247.148,133.818 236.100 L 133.546 235.200 223.084 235.200 C 313.052 235.200,316.217 235.155,321.800 233.782 C 335.051 230.524,335.516 229.715,374.400 142.200 C 381.047 127.240,387.842 112.030,389.499 108.400 C 400.850 83.541,397.326 67.004,379.917 63.432 C 375.256 62.476,122.780 62.463,120.493 63.419 C 114.290 66.011,113.799 75.340,119.700 78.492 L 121.400 79.400 249.458 79.600 C 371.948 79.791,377.551 79.831,378.310 80.518 C 381.095 83.039,379.582 89.463,372.493 105.200 C 369.966 110.810,364.794 122.420,360.999 131.000 C 325.542 211.161,323.458 215.322,317.600 217.645 C 316.422 218.112,301.322 218.217,222.568 218.305 L 128.935 218.410 124.828 203.305 C 120.217 186.345,108.183 143.024,93.243 89.600 C 86.263 64.640,82.836 53.016,81.925 51.209 C 78.693 44.800,72.377 41.011,62.600 39.616 C 58.126 38.977,10.099 39.101,8.600 39.755 M148.445 284.995 C 121.076 291.179,108.890 322.374,125.004 345.000 C 137.092 361.974,161.497 365.980,178.600 353.797 C 200.115 338.470,199.524 305.252,177.476 290.663 C 169.478 285.371,157.302 282.993,148.445 284.995 M303.450 285.032 C 268.083 292.913,262.137 341.284,294.600 357.016 C 323.607 371.073,356.447 344.951,348.859 313.857 C 343.933 293.671,323.341 280.600,303.450 285.032 M161.159 301.015 C 178.131 305.016,184.074 326.206,171.644 338.400 C 157.614 352.165,134.000 342.168,134.000 322.464 C 134.000 308.477,147.519 297.800,161.159 301.015 M316.977 301.194 C 333.661 305.461,339.205 325.926,327.012 338.240 C 316.214 349.145,298.489 346.124,291.584 332.200 C 283.269 315.434,298.749 296.532,316.977 301.194 " stroke="none" fill="#ffffff" fill-rule="evenodd"></path><path id="path1" d="M8.600 39.755 C 4.154 41.696,2.446 48.555,5.476 52.304 C 8.101 55.553,6.716 55.375,31.200 55.603 L 53.000 55.806 55.400 56.766 C 62.470 59.592,66.212 63.804,68.403 71.400 C 69.101 73.820,75.402 95.240,82.405 119.000 C 104.436 193.746,111.431 217.914,114.647 230.400 C 121.257 256.065,131.746 269.543,149.414 275.077 L 153.000 276.200 234.225 276.307 L 315.449 276.413 317.225 275.476 C 322.572 272.652,322.849 264.334,317.704 261.135 L 316.200 260.200 236.400 259.996 C 161.549 259.804,156.453 259.748,154.233 259.083 C 145.412 256.444,137.154 247.148,133.818 236.100 L 133.546 235.200 223.084 235.200 C 313.052 235.200,316.217 235.155,321.800 233.782 C 335.051 230.524,335.516 229.715,374.400 142.200 C 381.047 127.240,387.842 112.030,389.499 108.400 C 400.850 83.541,397.326 67.004,379.917 63.432 C 375.256 62.476,122.780 62.463,120.493 63.419 C 114.290 66.011,113.799 75.340,119.700 78.492 L 121.400 79.400 249.458 79.600 C 371.948 79.791,377.551 79.831,378.310 80.518 C 381.095 83.039,379.582 89.463,372.493 105.200 C 369.966 110.810,364.794 122.420,360.999 131.000 C 325.542 211.161,323.458 215.322,317.600 217.645 C 316.422 218.112,301.322 218.217,222.568 218.305 L 128.935 218.410 124.828 203.305 C 120.217 186.345,108.183 143.024,93.243 89.600 C 86.263 64.640,82.836 53.016,81.925 51.209 C 78.693 44.800,72.377 41.011,62.600 39.616 C 58.126 38.977,10.099 39.101,8.600 39.755 M148.445 284.995 C 121.076 291.179,108.890 322.374,125.004 345.000 C 137.092 361.974,161.497 365.980,178.600 353.797 C 200.115 338.470,199.524 305.252,177.476 290.663 C 169.478 285.371,157.302 282.993,148.445 284.995 M303.450 285.032 C 268.083 292.913,262.137 341.284,294.600 357.016 C 323.607 371.073,356.447 344.951,348.859 313.857 C 343.933 293.671,323.341 280.600,303.450 285.032 M161.159 301.015 C 178.131 305.016,184.074 326.206,171.644 338.400 C 157.614 352.165,134.000 342.168,134.000 322.464 C 134.000 308.477,147.519 297.800,161.159 301.015 M316.977 301.194 C 333.661 305.461,339.205 325.926,327.012 338.240 C 316.214 349.145,298.489 346.124,291.584 332.200 C 283.269 315.434,298.749 296.532,316.977 301.194 " stroke="none" fill="#ffffff" fill-rule="evenodd"></path></g></svg>