<?xml version="1.0" standalone="no"?>
<!DOCTYPE svg PUBLIC "-//W3C//DTD SVG 20010904//EN"
 "http://www.w3.org/TR/2001/REC-SVG-20010904/DTD/svg10.dtd">
<svg version="1.0" xmlns="http://www.w3.org/2000/svg"
 width="300.000000pt" height="428.000000pt" viewBox="0 0 300.000000 428.000000"
 preserveAspectRatio="xMidYMid meet">
<metadata>
Created by potrace 1.15, written by Peter Selinger 2001-2017
</metadata>
<g transform="translate(0.000000,428.000000) scale(0.100000,-0.100000)"
fill="#000000" stroke="none">
<path d="M1245 4265 c-411 -76 -779 -320 -997 -661 -90 -141 -173 -352 -215
-553 -25 -116 -27 -145 -27 -356 0 -212 2 -240 27 -356 45 -213 116 -389 220
-546 29 -43 277 -402 552 -798 275 -396 541 -781 592 -855 52 -74 98 -135 103
-135 5 0 55 68 113 150 57 83 339 490 628 905 557 803 611 891 677 1093 62
191 77 297 77 542 0 252 -16 354 -86 568 -168 507 -542 849 -1074 984 -87 22
-126 26 -305 29 -152 2 -226 0 -285 -11z m429 -1007 c197 -65 326 -248 326
-457 -1 -139 -39 -237 -132 -336 -159 -170 -418 -204 -614 -79 -100 63 -175
162 -208 273 -19 66 -21 198 -2 266 73 274 358 424 630 333z"/>
</g>
</svg>
