<?xml version="1.0"?>
<svg xmlns="http://www.w3.org/2000/svg" viewBox="0 0 50 50">
    <path style="line-height:normal;text-indent:0;text-align:start;text-decoration-line:none;text-decoration-style:solid;text-decoration-color:#000;text-transform:none;block-progression:tb;isolation:auto;mix-blend-mode:normal" d="M 24.427734 3 C 23.063886 3.008032 21.693861 3.0893049 20.318359 3.2578125 C 17.68149 3.5805277 15.065644 4.1207947 12.556641 5.2734375 C 8.5714597 7.104295 5.7434775 10.21447 4.9199219 14.734375 C 4.5724292 16.640013 4.2931564 18.574888 4.1328125 20.521484 C 3.8225671 24.295624 4.0149467 28.087887 5.0839844 31.806641 C 5.927772 34.742472 7.4841191 37.377734 10.207031 39.089844 C 11.359869 39.814227 12.879933 40.162803 13.673828 40.53125 L 13.673828 40.533203 C 13.894642 40.635284 13.950423 40.697939 13.960938 40.712891 C 13.971448 40.727841 14.00284 40.753401 14 40.988281 C 13.97172 43.377618 14 48.005859 14 48.005859 L 14.005859 49 L 15 49 L 15.789062 49 L 16.080078 48.71875 C 16.080078 48.71875 20.611363 44.35426 22.255859 42.556641 C 22.549214 42.236414 22.703424 42.060281 22.732422 42.039062 C 22.761422 42.017843 22.716272 42.00616 23.019531 42 C 25.171051 41.95677 27.322161 41.875445 29.470703 41.757812 C 32.300194 41.603257 35.186323 41.331995 37.964844 40.171875 C 40.384272 39.161541 42.402038 37.509351 43.623047 35.033203 C 44.875341 32.492864 45.543975 29.802163 45.792969 27.017578 C 46.208095 22.378954 46.061307 17.734382 44.779297 13.154297 C 44.028129 10.471399 42.512549 8.2041851 40.189453 6.6035156 C 37.407338 4.6867804 34.268997 3.9697425 31.199219 3.5117188 C 29.40632 3.2447454 27.602807 3.0684221 25.789062 3.015625 C 25.335627 3.0024257 24.882351 2.9973227 24.427734 3 z M 25.732422 5.0136719 C 27.455677 5.0638749 29.178196 5.2312545 30.904297 5.4882812 C 33.866519 5.9302575 36.660801 6.6007352 39.054688 8.25 C 40.995592 9.5873306 42.208684 11.390256 42.853516 13.693359 C 44.051505 17.973274 44.201655 22.358514 43.800781 26.837891 L 43.800781 26.839844 C 43.569775 29.423259 42.95783 31.856775 41.828125 34.148438 L 41.830078 34.148438 C 40.833087 36.170288 39.275931 37.458459 37.193359 38.328125 C 34.76988 39.340005 32.135791 39.610275 29.363281 39.761719 C 27.237823 39.878087 25.108949 39.957231 22.980469 40 C 22.44673 40.01084 21.922534 40.15375 21.550781 40.425781 C 21.179029 40.697812 21.011896 40.953305 20.78125 41.205078 L 20.779297 41.205078 C 19.608462 42.484885 17.272487 44.737902 16 45.974609 C 15.9935 44.479506 15.98029 42.676812 16 41.011719 C 16.0062 40.500596 15.889892 39.978049 15.597656 39.5625 C 15.306004 39.14778 14.904086 38.898591 14.515625 38.71875 L 14.513672 38.716797 C 13.38593 38.193857 11.910183 37.797809 11.271484 37.396484 C 9.0323971 35.988594 7.7620249 33.878074 7.0078125 31.253906 C 6.0208502 27.82066 5.8311985 24.283407 6.1269531 20.685547 C 6.2806092 18.820143 6.5501646 16.950112 6.8886719 15.09375 C 7.6011162 11.183655 9.8358055 8.7229863 13.390625 7.0898438 C 15.635621 6.0584865 18.033416 5.5514723 20.560547 5.2421875 C 22.285546 5.0308643 24.009167 4.963469 25.732422 5.0136719 z M 26.158203 10 C 25.333536 10 24.529522 10.09235 23.755859 10.267578 A 1.000239 1.000239 0 0 0 24.197266 12.21875 C 24.827603 12.075981 25.48287 12 26.158203 12 C 31.039689 12 34.976563 15.936873 34.976562 20.818359 C 34.976562 21.493693 34.900582 22.14896 34.757812 22.779297 A 1.0002389 1.0002389 0 1 0 36.708984 23.220703 C 36.884216 22.44704 36.976562 21.643026 36.976562 20.818359 C 36.976562 14.855845 32.120717 10 26.158203 10 z M 16.179688 12.003906 C 16.016078 11.994797 15.847828 12.008375 15.673828 12.046875 C 13.853828 12.447875 12.051 13.767188 12 16.117188 C 12.052 16.444187 12.045969 16.79675 12.167969 17.09375 C 12.760969 18.54775 13.277484 20.045875 14.021484 21.421875 C 17.633484 28.100875 23.096453 32.747312 30.064453 35.695312 C 30.894453 36.047312 31.753703 36.121531 32.595703 35.769531 C 33.748703 35.287531 34.728812 34.547516 35.382812 33.478516 C 36.277813 32.015516 36.290359 30.998969 34.818359 29.917969 C 33.852359 29.208969 32.902781 28.478203 31.925781 27.783203 C 30.438781 26.726203 28.827797 26.541531 27.716797 28.394531 C 27.660797 28.487531 27.574047 28.565484 27.498047 28.646484 C 26.930047 29.248484 26.231281 29.39975 25.488281 29.09375 C 22.670281 27.93375 20.495641 26.063344 19.181641 23.277344 C 18.410641 21.640344 18.622359 20.818469 20.068359 19.730469 C 20.210359 19.623469 20.349469 19.510625 20.480469 19.390625 C 21.114469 18.812625 21.281203 18.124656 20.908203 17.347656 C 20.057203 15.574656 18.929953 13.993859 17.501953 12.630859 C 17.114203 12.261109 16.670516 12.031234 16.179688 12.003906 z M 26.142578 13 C 25.698737 13 25.262142 13.03686 24.833984 13.109375 A 1.0001 1.0001 0 1 0 25.166016 15.080078 C 25.481858 15.026589 25.80842 15 26.142578 15 C 29.389133 15 32 17.610867 32 20.857422 C 32 21.192721 31.973462 21.517851 31.919922 21.833984 A 1.0001 1.0001 0 1 0 33.890625 22.166016 C 33.963088 21.738149 34 21.302123 34 20.857422 C 34 16.529976 30.470024 13 26.142578 13 z M 26 16 A 1.0001 1.0001 0 1 0 26 18 C 27.668484 18 29 19.331516 29 21 A 1.0001 1.0001 0 1 0 31 21 C 31 18.250484 28.749516 16 26 16 z" font-weight="400" font-family="sans-serif" white-space="normal" overflow="visible"/>
</svg>
