<?xml version="1.0"?>
<svg xmlns="http://www.w3.org/2000/svg" viewBox="0 0 50 50">
    <path style="text-indent:0;text-align:start;line-height:normal;text-transform:none;block-progression:tb;-inkscape-font-specification:Bitstream Vera Sans" d="M 25 4 C 13.441577 4 4.0354469 13.409331 4.03125 24.96875 C 4.03025 28.504179 4.940843 31.952616 6.625 35.03125 L 3.90625 45.0625 A 1.0001 1.0001 0 0 0 5.125 46.28125 L 15.375 43.59375 C 18.343251 45.132343 21.634226 45.967744 25 45.96875 C 36.558484 45.96875 45.995803 36.559419 46 25 C 46.0021 19.402367 43.801231 14.116877 39.84375 10.15625 C 35.887171 6.195476 30.606226 4.002097 25 4 z M 25 6 C 30.087774 6.0019 34.848079 7.969274 38.4375 11.5625 C 42.028019 15.155873 44.001903 19.921633 44 25 C 43.9962 35.474581 35.473516 43.96875 25 43.96875 C 21.820969 43.9678 18.709116 43.167868 15.9375 41.65625 A 1.0001 1.0001 0 0 0 15.1875 41.5625 L 6.28125 43.90625 L 8.65625 35.21875 A 1.0001 1.0001 0 0 0 8.5625 34.46875 C 6.9012785 31.590819 6.0302995 28.316422 6.03125 24.96875 C 6.0350531 14.494169 14.526423 6 25 6 z M 17.9375 14.75 C 17.35425 14.75 16.541863 14.959484 15.875 15.6875 C 15.506849 16.089412 13.84375 17.72423 13.84375 20.53125 C 13.84375 23.473937 15.86021 25.999238 16.09375 26.3125 C 16.05746 26.26417 16.40725 26.737588 16.84375 27.3125 C 17.28025 27.887412 17.889231 28.651108 18.65625 29.46875 C 20.190288 31.104035 22.339829 32.994033 25.03125 34.15625 C 26.263967 34.687807 27.235253 35.016293 27.96875 35.25 C 29.357765 35.691326 30.620652 35.640019 31.5625 35.5 C 32.300071 35.390018 33.071228 35.026257 33.84375 34.53125 C 34.616272 34.036243 35.373038 33.437742 35.71875 32.46875 C 35.957153 31.800534 36.0809 31.167569 36.125 30.65625 C 36.14705 30.400591 36.17301 30.182355 36.15625 29.96875 C 36.13949 29.755145 36.15095 29.573979 35.9375 29.21875 C 35.499713 28.490273 35.021556 28.511238 34.5625 28.28125 C 34.302277 28.150878 33.582704 27.762821 32.84375 27.40625 C 32.104796 27.049679 31.483724 26.746421 31.0625 26.59375 C 30.810312 26.501795 30.48783 26.381585 30 26.4375 C 29.51217 26.49341 29.015897 26.850755 28.75 27.25 C 28.540449 27.564641 27.721161 28.564605 27.375 28.96875 C 27.3682 28.96535 27.35057 28.97215 27.34375 28.96875 C 26.965952 28.781807 26.541196 28.651642 25.90625 28.3125 C 25.25984 27.967235 24.44996 27.447844 23.5625 26.65625 C 22.267072 25.501269 21.400168 24.080215 21.09375 23.5625 C 21.380695 23.267415 21.637417 22.961503 21.84375 22.71875 L 21.84375 22.6875 C 22.175216 22.300347 22.3488 21.959561 22.5 21.65625 C 22.8234 21.007501 22.619064 20.282803 22.4375 19.90625 C 22.438462 19.90825 22.437286 19.8747 22.4375 19.875 C 22.4412 19.8802 22.35975 19.669073 22.25 19.40625 C 22.133886 19.12819 21.970795 18.759661 21.8125 18.375 C 21.495911 17.605677 21.148023 16.756064 20.9375 16.25 C 20.682696 15.637212 20.328731 15.166413 19.84375 14.9375 C 19.358769 14.708587 18.92641 14.780708 18.9375 14.78125 C 18.619057 14.76593 18.278508 14.75 17.9375 14.75 z M 17.9375 16.75 C 18.262492 16.75 18.580193 16.76857 18.84375 16.78125 C 18.923272 16.785135 18.931302 16.779728 18.96875 16.78125 C 18.99277 16.818897 19.034945 16.858582 19.09375 17 C 19.299227 17.493936 19.651089 18.384323 19.96875 19.15625 C 20.12758 19.542214 20.287458 19.903028 20.40625 20.1875 C 20.525042 20.471972 20.577193 20.619921 20.65625 20.78125 C 20.502643 21.09306 20.502688 21.220611 20.34375 21.40625 C 20.065165 21.731638 19.790327 22.085269 19.65625 22.21875 C 19.526014 22.348465 19.254029 22.568687 19.09375 23 C 18.933471 23.431313 19.03126 24.007963 19.28125 24.4375 C 19.597515 24.98091 20.626546 26.708807 22.25 28.15625 C 23.26954 29.065656 24.20866 29.656515 24.96875 30.0625 C 25.72884 30.468485 26.35274 30.723129 26.46875 30.78125 C 26.808143 30.951286 27.195783 31.087217 27.65625 31.03125 C 28.116717 30.97528 28.509153 30.681859 28.75 30.40625 C 29.04229 30.07077 29.852521 29.098925 30.3125 28.4375 C 30.3471 28.4455 30.28984 28.437697 30.375 28.46875 C 30.41178 28.48208 31.240454 28.867321 31.96875 29.21875 C 32.697046 29.570179 33.448723 29.942872 33.6875 30.0625 C 33.982883 30.210487 34.111827 30.276196 34.15625 30.28125 C 34.159108 30.343183 34.164603 30.403114 34.15625 30.5 C 34.1276 30.832181 34.021347 31.283466 33.84375 31.78125 C 33.77346 31.978258 33.350478 32.479007 32.78125 32.84375 C 32.212022 33.208493 31.502679 33.466982 31.28125 33.5 C 30.501098 33.615981 29.565485 33.662424 28.5625 33.34375 C 27.845997 33.115457 26.963783 32.808943 25.8125 32.3125 C 23.494921 31.311717 21.510462 29.603965 20.09375 28.09375 C 19.385394 27.338642 18.841344 26.656901 18.4375 26.125 C 18.033656 25.593099 17.848786 25.308583 17.6875 25.09375 C 17.42304 24.739012 15.84375 22.502563 15.84375 20.53125 C 15.84375 18.42427 16.795901 17.660588 17.34375 17.0625 C 17.592887 16.790516 17.85475 16.75 17.9375 16.75 z" overflow="visible" font-family="Bitstream Vera Sans"/>
</svg>
